<svg xmlns="http://www.w3.org/2000/svg" viewBox="0 0 512 512">
  <defs>
    <linearGradient id="bg" x1="0" y1="0" x2="0" y2="1">
      <stop offset="0%" stop-color="#4FB8B2"/>
      <stop offset="100%" stop-color="#287571"/>
    </linearGradient>
  </defs>
  <!-- Rounded square background -->
  <rect width="512" height="512" rx="96" fill="url(#bg)"/>
  <!-- Skull -->
  <g fill="#fff">
    <!-- Cranium -->
    <path d="M256 68c-100 0-160 72-160 160 0 60 28 108 72 136l8 36h160l8-36c44-28 72-76 72-136 0-88-60-160-160-160z"/>
    <!-- Left eye socket -->
    <ellipse cx="208" cy="216" rx="40" ry="44" fill="#287571"/>
    <!-- Right eye socket -->
    <ellipse cx="304" cy="216" rx="40" ry="44" fill="#287571"/>
    <!-- Nose -->
    <path d="M244 280l12 28h0l12-28c-4-4-10-6-12-6s-8 2-12 6z" fill="#287571"/>
    <!-- Jaw -->
    <path d="M168 364h176v16c0 36-16 64-88 64s-88-28-88-64v-16z"/>
    <!-- Teeth -->
    <rect x="188" y="364" width="24" height="32" rx="4" fill="#287571"/>
    <rect x="220" y="364" width="24" height="32" rx="4" fill="#287571"/>
    <rect x="252" y="364" width="24" height="32" rx="4" fill="#287571"/>
    <rect x="284" y="364" width="24" height="32" rx="4" fill="#287571"/>
    <rect x="316" y="364" width="24" height="32" rx="4" fill="#287571"/>
  </g>
</svg>
